<?xml version="1.0" standalone="no"?>
<!DOCTYPE svg PUBLIC "-//W3C//DTD SVG 20010904//EN"
 "http://www.w3.org/TR/2001/REC-SVG-20010904/DTD/svg10.dtd">
<svg version="1.0" xmlns="http://www.w3.org/2000/svg"
 width="1008.000000pt" height="1008.000000pt" viewBox="0 0 1008.000000 1008.000000"
 preserveAspectRatio="xMidYMid meet">
<metadata>
Created by potrace 1.14, written by Peter Selinger 2001-2017
</metadata>
<g transform="translate(0.000000,1008.000000) scale(0.100000,-0.100000)"
fill="#000000" stroke="none">
<path d="M3781 8678 c59 -151 252 -636 259 -653 5 -11 18 -42 28 -70 11 -27
35 -88 54 -135 19 -47 41 -101 48 -120 7 -19 19 -48 26 -65 7 -16 34 -84 60
-150 25 -66 55 -140 66 -164 11 -24 21 -52 23 -62 2 -11 7 -25 12 -32 4 -6 8
-14 9 -17 0 -3 4 -14 9 -25 5 -11 36 -90 70 -175 34 -85 65 -164 70 -175 5
-11 9 -22 10 -25 1 -3 7 -18 14 -35 6 -16 37 -93 67 -170 31 -77 60 -151 66
-165 6 -14 12 -29 14 -35 1 -5 48 -122 104 -260 56 -137 103 -254 104 -260 2
-5 8 -21 13 -35 45 -108 63 -155 63 -167 0 -7 5 -13 10 -13 6 0 9 -3 8 -7 -3
-8 114 -310 175 -453 8 -19 27 -66 41 -105 15 -38 31 -79 36 -90 45 -100 45
-98 -17 -259 -19 -50 -36 -99 -38 -109 -2 -10 -11 -32 -20 -49 -8 -17 -15 -35
-15 -39 0 -4 -5 -20 -12 -36 -6 -15 -12 -31 -13 -35 -2 -5 -3 -9 -5 -10 -1 -2
-3 -10 -5 -18 -2 -8 -25 -71 -50 -140 -26 -69 -52 -141 -58 -160 -6 -19 -16
-38 -22 -42 -5 -4 -7 -8 -3 -8 4 0 0 -17 -8 -37 -9 -20 -17 -44 -19 -52 -2 -9
-8 -29 -15 -46 -6 -16 -12 -32 -12 -35 0 -3 -4 -13 -10 -23 -5 -10 -27 -69
-49 -130 -22 -62 -42 -119 -46 -127 -3 -8 -7 -19 -9 -25 -4 -18 -112 -309
-128 -347 -9 -21 -16 -39 -15 -40 0 -3 -16 -50 -28 -78 -3 -8 -7 -20 -9 -27
-2 -10 -68 -193 -91 -253 -4 -8 -7 -17 -8 -20 -1 -3 -5 -13 -9 -22 -4 -9 -9
-22 -10 -30 -2 -7 -8 -26 -15 -43 -7 -16 -21 -57 -33 -90 -11 -33 -24 -64 -29
-70 -5 -5 -9 -16 -9 -26 0 -9 -9 -38 -19 -65 -31 -79 -34 -89 -33 -97 1 -4 -3
-7 -8 -7 -5 0 -9 -3 -9 -8 1 -4 0 -10 -1 -14 -1 -5 -4 -12 -5 -18 -1 -5 -4
-12 -5 -15 -1 -3 -3 -8 -4 -12 -6 -26 -52 -143 -57 -143 -4 0 -80 179 -84 200
-1 3 -6 16 -12 30 -36 81 -143 355 -143 367 0 7 -4 13 -8 13 -5 0 -9 6 -9 13
0 10 -26 77 -78 202 -7 17 -25 62 -39 100 -15 39 -33 84 -40 100 -8 17 -26 62
-40 100 -15 39 -35 86 -43 105 -20 44 -21 76 -1 120 9 19 25 60 37 90 11 30
26 69 32 85 7 17 13 35 15 40 4 16 84 228 94 250 5 11 30 76 56 145 25 69 82
220 126 335 44 116 81 215 82 220 2 6 7 21 13 35 32 79 74 196 73 204 -1 5 2
12 7 15 4 3 19 38 32 76 13 39 28 75 32 81 5 6 10 20 12 32 2 12 6 25 10 28 4
4 7 16 7 26 0 10 5 18 12 18 6 0 9 3 5 6 -3 3 3 26 14 52 20 47 19 79 -3 66
-17 -11 -88 -12 -88 -2 0 5 -6 6 -12 1 -19 -11 -92 -10 -100 2 -5 7 -11 7 -15
0 -10 -12 -93 -15 -93 -3 0 5 -6 6 -12 1 -18 -10 -88 -11 -88 0 0 4 -6 5 -12
0 -19 -11 -92 -10 -100 2 -5 7 -11 7 -15 0 -10 -12 -113 -14 -113 -2 0 4 -6 5
-12 0 -7 -4 -20 -6 -28 -5 -17 3 -23 -10 -80 -178 -24 -69 -48 -136 -53 -150
-6 -14 -11 -29 -13 -35 -4 -16 -88 -259 -149 -430 -31 -88 -58 -164 -59 -170
-2 -5 -6 -17 -9 -25 -4 -8 -34 -94 -66 -190 -33 -96 -63 -168 -66 -160 -23 61
-78 221 -85 245 -4 17 -12 41 -18 55 -5 14 -10 27 -10 30 -1 3 -20 57 -42 120
-23 63 -55 156 -71 205 -16 50 -33 99 -38 110 -4 11 -13 36 -20 55 -33 101
-93 277 -98 290 -4 8 -7 17 -7 20 -1 3 -5 11 -9 18 -5 6 -6 12 -2 12 3 0 -1
13 -10 30 -8 16 -15 31 -14 32 0 2 -4 16 -10 31 -6 16 -11 35 -11 43 0 20 -39
56 -52 48 -17 -10 -198 -11 -198 0 0 5 -7 3 -15 -4 -11 -9 -15 -9 -15 -1 0 7
-5 9 -12 4 -18 -10 -88 -11 -88 0 0 4 -6 5 -12 0 -19 -11 -92 -10 -100 2 -5 7
-11 7 -15 0 -10 -12 -93 -15 -93 -3 0 5 -6 6 -12 1 -19 -11 -88 -11 -88 1 0 6
-5 5 -11 -1 -6 -6 -18 -9 -25 -6 -17 6 -17 5 -3 -38 10 -32 14 -43 38 -101 5
-13 28 -75 51 -138 42 -117 45 -124 74 -195 9 -22 18 -50 20 -61 3 -12 9 -30
15 -40 5 -11 33 -82 61 -159 29 -77 55 -149 60 -160 4 -11 18 -47 30 -80 12
-33 26 -69 30 -80 21 -50 62 -161 65 -170 1 -5 7 -23 14 -40 6 -16 16 -43 22
-60 6 -16 14 -39 19 -50 4 -11 17 -47 30 -80 12 -33 25 -69 30 -80 31 -76 53
-140 53 -151 0 -8 4 -14 8 -14 3 0 9 -10 12 -22 3 -13 15 -50 27 -82 l21 -59
-23 -61 c-12 -34 -23 -63 -24 -66 0 -3 -6 -16 -11 -30 -6 -14 -31 -77 -56
-140 -83 -213 -119 -304 -181 -465 -68 -173 -75 -191 -77 -203 -1 -4 -9 -23
-19 -42 -10 -19 -19 -39 -20 -45 -1 -5 -7 -21 -12 -35 -5 -14 -15 -42 -21 -62
-7 -21 -15 -38 -19 -38 -5 0 -8 -7 -8 -15 0 -8 -7 -33 -17 -56 l-16 -42 -15
39 c-7 22 -18 48 -22 59 -5 11 -18 47 -30 80 -11 33 -24 69 -29 80 -5 11 -23
61 -41 110 -54 152 -82 229 -91 250 -5 11 -27 70 -48 130 -22 61 -54 148 -71
195 -17 47 -43 117 -56 155 -14 39 -29 79 -34 90 -5 11 -20 52 -34 90 -38 107
-85 238 -93 255 -3 8 -7 20 -9 25 -1 6 -8 24 -15 40 -6 17 -14 38 -16 48 -2
10 -9 28 -15 40 -7 12 -11 26 -10 31 2 4 -1 13 -6 20 -5 6 -19 40 -31 76 -12
36 -26 74 -31 85 -8 19 -78 212 -102 280 -5 17 -14 39 -19 50 -20 45 -92 251
-92 263 0 6 -4 12 -7 12 -4 0 -12 17 -18 38 -6 20 -20 62 -32 92 -11 30 -23
62 -25 70 -2 8 -10 31 -18 50 -27 66 -30 75 -34 93 -2 10 -9 28 -15 40 -7 12
-13 24 -13 27 -2 12 -17 56 -25 75 -21 49 -60 162 -60 173 0 9 -97 12 -430 12
l-430 0 21 -51 c11 -29 25 -61 31 -73 6 -12 11 -23 11 -26 -1 -7 0 -8 99 -255
49 -121 90 -224 91 -230 2 -5 6 -16 10 -22 5 -7 10 -21 12 -32 2 -10 16 -45
30 -77 15 -33 28 -63 30 -69 4 -17 16 -49 26 -67 5 -10 9 -25 9 -33 0 -8 5
-15 12 -15 6 0 9 -3 6 -6 -5 -5 22 -82 52 -149 27 -62 50 -119 50 -126 0 -5 9
-28 19 -52 28 -60 151 -369 156 -388 2 -9 8 -25 13 -35 6 -11 22 -50 37 -89
16 -38 34 -83 41 -100 7 -16 24 -59 37 -95 14 -36 28 -74 32 -85 5 -11 7 -23
7 -27 -1 -5 3 -8 8 -8 6 0 10 -6 10 -13 0 -11 56 -156 103 -267 6 -14 11 -28
12 -32 2 -5 4 -11 5 -15 1 -5 2 -11 1 -15 0 -5 3 -8 7 -8 4 0 8 -10 9 -22 1
-11 8 -25 15 -29 7 -5 9 -9 4 -9 -5 0 -4 -6 1 -12 5 -7 20 -42 33 -78 13 -36
27 -70 32 -76 4 -6 5 -14 1 -17 -3 -4 -1 -7 5 -7 7 0 12 -6 12 -14 0 -8 5 -27
12 -43 6 -15 12 -30 13 -33 3 -9 18 -44 41 -97 13 -29 20 -53 17 -53 -3 0 -1
-6 4 -12 8 -11 76 -174 78 -188 1 -3 9 -22 18 -44 9 -21 17 -42 17 -45 0 -4
10 -27 21 -51 12 -24 22 -49 23 -54 2 -15 55 -145 71 -176 7 -14 13 -29 14
-35 0 -9 16 -51 66 -170 6 -16 24 -61 40 -100 15 -38 31 -78 37 -89 5 -10 11
-26 13 -35 2 -9 11 -34 20 -56 10 -22 17 -42 17 -45 0 -12 20 -41 25 -36 3 3
14 1 24 -5 13 -6 25 -6 39 1 14 8 20 8 20 0 0 -8 6 -8 20 0 14 8 20 8 20 0 0
-8 6 -8 20 0 14 8 20 8 20 0 0 -7 6 -8 18 -2 19 9 53 8 70 -2 6 -3 13 -2 17 4
4 7 12 7 25 0 13 -7 21 -7 25 0 4 7 13 7 26 0 13 -8 19 -7 19 0 0 7 6 8 19 0
13 -7 22 -7 26 0 4 7 12 7 25 0 13 -7 21 -7 25 0 4 6 11 8 16 4 16 -10 70 -11
75 -2 3 4 14 3 25 -2 12 -7 19 -7 19 -1 0 7 8 7 23 2 23 -9 79 7 78 21 -1 13
17 60 49 133 5 11 21 49 36 85 14 36 32 79 39 95 8 17 25 59 40 95 38 94 40
100 63 150 11 25 39 95 63 155 24 61 48 113 54 117 5 4 7 8 3 8 -4 0 13 45 37
100 24 55 44 103 44 105 0 3 7 18 15 34 9 16 12 31 9 35 -4 3 -1 6 5 6 7 0 11
3 10 7 -1 8 11 41 32 91 6 12 14 32 19 45 6 12 24 56 42 97 18 41 32 81 32 88
0 6 4 12 9 12 4 0 7 3 6 8 -1 7 12 42 37 97 8 16 23 53 34 80 l19 50 24 -55
c24 -54 40 -90 43 -100 1 -3 6 -16 12 -30 6 -14 34 -81 63 -150 29 -69 58
-138 65 -155 8 -16 32 -75 55 -130 23 -55 47 -113 54 -130 8 -16 37 -86 66
-155 28 -69 61 -145 72 -170 11 -25 21 -49 22 -55 1 -5 4 -14 8 -20 3 -5 27
-62 52 -125 26 -63 54 -127 61 -141 8 -14 12 -29 8 -33 -3 -3 -1 -6 5 -6 7 0
12 -6 12 -14 0 -7 12 -40 26 -72 37 -83 47 -107 50 -122 1 -7 10 -24 19 -38
13 -20 19 -22 35 -14 14 8 20 8 20 0 0 -8 6 -8 20 0 14 8 20 8 20 0 0 -8 6 -8
20 0 14 8 20 8 20 0 0 -6 5 -8 11 -5 13 9 79 12 79 5 0 -3 24 -5 54 -5 30 0
52 3 49 7 -2 5 7 4 21 -2 16 -6 26 -6 26 0 0 6 9 6 25 0 15 -6 26 -6 30 0 4 6
14 7 23 2 19 -9 54 -8 71 2 6 4 11 2 11 -4 0 -8 6 -8 20 0 14 8 20 8 20 0 0
-8 6 -8 20 0 14 8 20 8 20 0 0 -7 6 -8 19 -1 10 6 21 8 24 5 7 -8 47 5 44 14
-3 10 137 356 146 360 4 2 5 8 2 13 -3 4 2 21 12 36 10 15 17 28 16 30 -3 4 5
28 43 117 19 44 34 83 34 86 0 4 10 29 22 56 12 27 23 54 24 60 1 6 9 27 17
45 8 19 27 66 42 104 15 39 31 74 36 80 5 5 9 14 9 21 0 6 8 29 17 50 9 22 17
41 18 44 0 5 20 56 41 105 55 133 117 292 117 303 0 6 4 12 9 12 4 0 8 6 8 14
0 7 20 61 45 120 25 60 45 114 45 122 0 8 4 14 10 14 5 0 9 3 8 8 -1 8 1 14
59 157 24 61 46 115 47 120 6 22 18 51 32 76 7 15 15 35 17 45 1 11 5 24 9 29
3 6 18 42 33 80 15 39 33 84 40 100 7 17 34 84 60 150 26 66 53 134 60 150 8
17 36 89 65 160 28 72 55 139 59 150 5 11 21 52 36 90 15 39 33 84 40 100 7
17 22 53 33 80 17 43 25 50 50 53 23 2 33 10 42 35 7 18 18 46 26 63 22 50 95
227 109 264 7 19 26 64 42 100 17 36 30 67 31 70 1 9 19 52 67 165 26 61 48
115 49 120 1 6 10 24 19 41 9 17 13 34 10 38 -4 3 0 6 7 6 7 0 11 3 8 6 -6 5
15 59 57 149 17 37 195 466 199 480 2 6 13 33 25 60 13 28 30 66 38 85 10 23
17 30 20 20 7 -21 51 -125 79 -188 13 -29 24 -55 24 -58 0 -6 8 -25 49 -116
11 -26 21 -50 21 -53 0 -2 13 -33 28 -67 16 -35 39 -90 52 -123 13 -33 27 -64
32 -69 4 -6 8 -18 8 -28 0 -10 4 -18 8 -18 5 0 9 -6 9 -12 0 -7 17 -50 36 -95
20 -46 33 -83 29 -83 -4 0 -2 -4 3 -8 6 -4 41 -79 77 -167 37 -88 75 -178 84
-200 10 -22 18 -42 19 -45 2 -5 22 -56 32 -80 3 -8 5 -18 5 -22 -1 -5 3 -8 8
-8 6 0 10 -7 10 -15 0 -8 13 -43 28 -77 16 -35 37 -84 47 -110 10 -26 25 -50
34 -52 16 -5 72 -9 81 -7 14 5 160 5 160 1 0 -3 48 -4 107 -3 160 2 206 3 228
3 66 -1 95 3 102 13 5 7 42 95 82 197 41 102 79 199 86 215 7 17 34 84 60 150
26 66 53 134 60 150 7 17 22 53 34 82 11 28 26 64 33 80 6 15 12 33 14 38 2
11 109 278 124 310 5 11 59 146 120 300 61 154 114 289 119 300 34 79 74 182
74 193 0 6 4 12 9 12 4 0 8 9 8 20 0 11 4 20 8 20 5 0 9 6 9 13 0 12 109 292
121 312 4 6 7 12 7 15 0 14 141 355 148 358 4 2 5 8 2 13 -3 4 1 19 9 31 8 13
15 25 15 28 0 8 11 38 46 125 18 44 47 116 64 160 18 44 36 88 41 97 6 10 10
25 10 33 0 8 4 15 8 15 4 0 8 8 9 18 1 9 21 64 46 122 61 146 60 144 62 156 2
6 13 33 25 60 13 27 24 55 26 62 3 15 74 193 83 207 3 6 6 12 6 15 1 10 39
105 45 115 4 6 10 20 13 33 l5 22 -434 0 c-411 0 -434 -1 -434 -18 0 -10 -4
-22 -8 -28 -9 -9 -36 -96 -32 -103 1 -2 -2 -7 -7 -10 -4 -3 -14 -24 -21 -46
-20 -59 -60 -167 -103 -281 -22 -55 -39 -107 -39 -115 0 -8 -4 -19 -9 -25 -5
-5 -14 -27 -20 -49 -7 -22 -16 -49 -21 -60 -13 -31 -64 -169 -66 -180 -1 -5
-14 -39 -29 -75 -14 -36 -28 -75 -31 -86 -2 -12 -12 -39 -21 -60 -20 -47 -19
-42 -28 -81 -4 -18 -11 -33 -16 -33 -5 0 -8 -3 -7 -7 1 -5 -6 -33 -17 -63 -11
-30 -20 -57 -20 -60 -1 -3 -7 -18 -14 -35 -7 -16 -14 -34 -16 -40 -1 -5 -7
-21 -12 -35 -6 -14 -9 -28 -6 -32 2 -5 -1 -8 -6 -8 -6 0 -10 -3 -9 -7 0 -5 -1
-15 -5 -23 -15 -39 -108 -297 -112 -310 -2 -8 -38 -107 -80 -220 -42 -113 -78
-212 -80 -220 -7 -26 -36 -103 -43 -114 -3 -6 -7 -15 -8 -21 -2 -5 -19 -55
-39 -110 -20 -55 -41 -113 -47 -130 -5 -16 -12 -37 -15 -45 -4 -8 -5 -18 -5
-22 1 -5 -2 -8 -6 -8 -5 0 -9 -6 -9 -12 0 -7 -24 -76 -52 -153 -54 -144 -58
-156 -59 -165 0 -3 -7 -18 -16 -34 -8 -16 -12 -34 -9 -40 4 -8 2 -8 -5 -1 -6
6 -55 123 -110 260 -54 138 -102 259 -107 270 -5 11 -9 22 -10 25 -1 3 -6 16
-12 30 -6 14 -19 45 -28 70 -9 25 -21 54 -26 65 -9 21 -31 77 -34 85 -1 3 -9
22 -18 44 -9 21 -17 44 -17 50 0 7 -4 16 -9 22 -4 5 -25 54 -46 109 -35 93
-54 140 -76 190 -28 64 -29 74 -9 120 11 25 19 46 19 48 0 1 4 15 10 30 6 16
11 31 11 34 0 3 6 19 14 36 7 18 27 68 43 112 40 106 45 120 42 120 -1 0 4 11
11 25 8 14 15 30 16 35 1 6 8 24 15 40 7 17 13 33 14 38 2 4 4 9 5 12 1 3 3 8
5 13 1 4 4 14 8 22 3 8 45 119 92 245 48 127 109 289 137 360 27 72 51 135 52
140 2 6 6 17 9 25 3 8 24 65 47 125 22 61 45 119 51 130 5 12 11 27 13 35 1 8
8 25 14 38 7 12 10 22 6 22 -3 0 -2 6 4 13 6 6 11 15 11 20 0 4 8 23 16 43 8
20 15 40 15 44 0 3 -164 6 -365 6 l-365 -1 -45 -130 c-25 -71 -48 -137 -50
-145 -2 -8 -9 -28 -15 -45 -17 -42 -140 -397 -145 -415 -2 -8 -9 -28 -16 -45
-6 -16 -13 -34 -15 -40 -1 -5 -19 -55 -39 -110 -19 -55 -37 -107 -39 -115 -10
-37 -99 -286 -106 -293 -4 -5 -11 9 -15 30 -4 21 -10 43 -15 48 -4 6 -15 33
-23 60 -9 28 -54 163 -102 300 -48 138 -88 255 -89 260 -1 6 -4 15 -7 20 -6 9
-59 165 -66 190 -1 6 -27 82 -58 170 -31 88 -65 182 -74 209 -18 51 -30 59
-86 56 -16 -1 -68 -2 -115 -1 -47 0 -101 0 -120 0 -19 0 -75 0 -125 0 -49 1
-103 1 -120 0 -16 -1 -65 -1 -107 -1 -43 -1 -78 -3 -78 -6 0 -7 75 -212 92
-252 14 -34 24 -58 38 -100 7 -19 16 -44 20 -55 4 -11 18 -47 30 -80 12 -33
26 -69 31 -80 4 -11 45 -119 89 -240 45 -121 85 -229 90 -240 4 -11 18 -47 30
-80 12 -33 26 -69 30 -80 11 -27 22 -58 26 -70 6 -20 86 -231 100 -262 8 -17
14 -37 14 -45 0 -8 3 -18 8 -22 4 -4 7 -11 8 -14 0 -4 4 -16 9 -27 29 -71 75
-198 75 -206 0 -5 -36 -102 -81 -216 -44 -115 -100 -257 -123 -318 -24 -60
-47 -119 -51 -130 -5 -11 -9 -23 -10 -27 -2 -5 -4 -10 -5 -13 -1 -3 -3 -8 -5
-12 -1 -5 -7 -19 -12 -33 -18 -41 -125 -314 -127 -325 -2 -5 -9 -23 -16 -40
-7 -16 -14 -32 -14 -35 -2 -12 -59 -150 -61 -148 -2 2 -24 62 -50 133 -44 122
-87 238 -121 330 -8 22 -16 45 -18 50 -4 12 -15 44 -26 70 -4 11 -13 36 -20
55 -7 19 -16 44 -20 55 -5 11 -20 54 -35 95 -15 41 -33 91 -40 110 -50 132
-78 206 -80 215 -1 6 -5 17 -8 25 -3 8 -29 78 -57 155 -53 145 -66 181 -120
325 -18 47 -33 90 -35 95 -1 6 -5 17 -8 25 -4 8 -16 42 -28 75 -11 33 -27 74
-34 90 -7 17 -16 41 -20 55 -3 14 -10 34 -15 45 -15 32 -60 158 -65 180 -3 11
-9 29 -14 40 -20 40 -111 294 -111 309 0 9 -4 16 -9 16 -5 0 -12 15 -15 33 -3
17 -13 46 -22 62 -9 17 -17 37 -18 45 -1 8 -13 47 -28 85 -15 39 -45 122 -68
185 -23 63 -49 135 -59 160 l-17 45 -427 3 -427 2 21 -52z"/>
</g>
</svg>
